<svg width="390" height="683" viewBox="0 0 390 683" fill="none" xmlns="http://www.w3.org/2000/svg">
<path d="M387.966 36.9159C384.766 23.1826 374.233 10.6492 360.766 4.38258C353.966 1.31591 351.033 0.649242 341.433 0.782575C320.099 0.782574 334.499 -12.0174 162.499 159.716C58.7659 263.316 8.49926 314.383 6.2326 318.516C1.0326 328.249 -0.83407 339.583 1.29926 349.716C2.2326 354.249 4.49926 360.783 6.2326 364.116C8.49926 368.249 58.7659 419.316 162.499 522.916C334.499 694.649 320.099 681.849 341.433 681.849C351.033 681.849 353.966 681.316 361.033 678.116C385.566 666.916 395.966 637.049 383.833 612.649C382.099 609.183 334.766 560.916 248.366 474.383L115.433 341.316L248.366 208.249C335.166 121.316 382.099 73.4492 383.833 69.9826C388.766 59.8492 390.366 47.3159 387.966 36.9159Z" fill="#E50044"/>
</svg>
