<svg width="682" height="584" viewBox="0 0 682 584" fill="none" xmlns="http://www.w3.org/2000/svg">
<path d="M407.6 580.961C411.733 579.227 417.467 575.894 420.267 573.627C430.533 565.361 671.2 323.227 674.533 317.627C679.6 309.494 682.533 297.094 681.467 287.627C679.6 270.027 686.8 277.894 546.267 137.094C440.267 30.9606 416.267 7.62724 410.267 4.56058C399.867 -0.639424 383.333 -1.57276 372.267 2.69391C360.4 7.22724 351.867 14.6939 346.8 25.2272C343.067 33.2272 342.667 35.2272 342.667 46.6939C342.667 68.6939 340.533 65.8939 417.6 143.894C454.133 180.961 488.8 215.361 494.8 220.561C500.8 225.894 510.533 232.694 517.067 236.027L528.533 242.027L283.6 242.694L38.6668 243.361L31.0668 246.427C20.2668 250.827 9.73345 260.827 4.40012 271.761C0.400119 279.761 0.000118852 281.761 0.000117954 292.027C0.13345 301.361 0.666784 304.694 3.60012 310.961C8.26678 321.094 16.8001 330.027 26.6668 335.094L34.6668 339.361L282 340.027L529.333 340.694L516.667 347.361L504 353.894L427.2 430.694C338.533 519.227 342.667 513.894 342.667 536.694C342.667 548.561 343.067 550.827 346.4 557.494C348.4 561.627 353.067 567.894 356.667 571.227C366.267 580.294 373.467 583.094 388 583.627C398.267 584.027 401.067 583.627 407.6 580.961Z" fill="#E50044"/>
</svg>
