<?xml version="1.0" encoding="UTF-8"?>
<svg id="Calque_1" data-name="Calque 1" xmlns="http://www.w3.org/2000/svg" viewBox="0 0 81.98 494.14">
  <defs>
    <style>
      .cls-1 {
        fill: #2a3173;
      }

      .cls-1, .cls-2, .cls-3 {
        stroke-width: 0px;
      }

      .cls-2 {
        fill: #e50043;
      }

      .cls-3 {
        fill: #fff;
      }
    </style>
  </defs>
  <polygon class="cls-2" points="0 0 0 494.14 40.16 458.56 81.98 494.14 81.98 0 0 0"/>
  <path class="cls-1" d="m48.98,407.29c-.55-.98-1.51-1.22-2.56-.86-1.02.36-1.8,1.03-2.53,1.79-.93.96-1.71,1.89-2.21,3.12-.13.34-.33.9-.61.94-.51-.77-1-1.56-1.55-2.3-.52-.7-1.08-1.38-1.7-2-.82-.82-1.81-.78-2.83-.39-1.58.6-3.31,2.95-2.66,5.38.5,1.89,1.14,3.75,2.13,5.42,1.15,1.96,2.44,3.84,3.78,5.67.99,1.35,2.12,2.59,3.24,3.83.73.81,1.53.67,2.04-.3.37-.7.74-1.41,1.08-2.13.89-1.91,1.77-3.83,2.64-5.75,1.12-2.48,2.09-5.01,2.41-7.74.1-.84.19-1.71.08-2.54-.1-.74-.39-1.49-.76-2.15"/>
  <g>
    <path class="cls-3" d="m36.77,358.11c1.62,0,2.86.53,3.72,1.59.86,1.06,1.29,2.57,1.29,4.52v1.61h5.79v2.53h-15.48v-4.46c0-1.93.4-3.38,1.19-4.35s1.96-1.45,3.5-1.45Zm2.88,7.72v-1.34c0-1.3-.23-2.25-.68-2.86s-1.16-.91-2.12-.91c-.89,0-1.55.27-1.99.82-.44.54-.66,1.39-.66,2.54v1.76h5.44Z"/>
    <path class="cls-3" d="m39.81,339.13c2.52,0,4.48.63,5.88,1.89,1.4,1.26,2.1,3.04,2.1,5.35s-.69,4.13-2.08,5.39-3.36,1.88-5.92,1.88-4.52-.63-5.89-1.89c-1.37-1.26-2.05-3.06-2.05-5.4s.7-4.08,2.09-5.34c1.39-1.26,3.35-1.89,5.88-1.89Zm0,11.82c1.91,0,3.35-.38,4.34-1.15.98-.77,1.48-1.91,1.48-3.42s-.49-2.64-1.46-3.4c-.98-.77-2.43-1.15-4.35-1.15s-3.34.38-4.32,1.14-1.47,1.89-1.47,3.39.49,2.66,1.47,3.44,2.42,1.16,4.32,1.16Z"/>
    <path class="cls-3" d="m32.09,321.52h10.02c1.14,0,2.15.24,3,.74.86.49,1.52,1.2,1.98,2.13.46.93.69,2.04.69,3.33,0,1.92-.51,3.41-1.53,4.48-1.02,1.07-2.41,1.6-4.19,1.6h-9.98v-2.54h9.8c1.28,0,2.22-.3,2.83-.89s.91-1.5.91-2.73c0-2.39-1.25-3.58-3.76-3.58h-9.78v-2.53Z"/>
    <path class="cls-3" d="m41.39,312.88h6.19v2.53h-15.48v-4.37c0-2,.38-3.48,1.12-4.44.75-.96,1.88-1.44,3.39-1.44,1.93,0,3.3,1,4.12,3.01l6.85-4.37v2.88l-6.19,3.71v2.5Zm-2.1,0v-1.76c0-1.18-.22-2.03-.66-2.56s-1.09-.79-1.95-.79-1.5.29-1.88.86c-.38.57-.57,1.43-.57,2.58v1.67h5.06Z"/>
    <path class="cls-3" d="m40.98,292.64c-6.06,0-9.09-2.47-9.09-7.4,0-.78.06-1.43.18-1.97h2.08c-.16.54-.23,1.16-.23,1.87,0,1.66.44,2.9,1.33,3.74.89.83,2.32,1.29,4.28,1.36v-.13c-.57-.33-1.02-.8-1.33-1.4-.31-.6-.47-1.31-.47-2.12,0-1.41.43-2.5,1.29-3.28s2.03-1.17,3.51-1.17c1.62,0,2.91.45,3.85,1.36s1.41,2.14,1.41,3.71c0,1.11-.27,2.07-.8,2.89s-1.31,1.45-2.33,1.89c-1.02.44-2.25.66-3.68.66Zm4.76-5.4c0-.85-.28-1.51-.83-1.98s-1.34-.69-2.36-.69c-.89,0-1.59.22-2.1.65-.51.43-.76,1.08-.76,1.95,0,.54.12,1.03.34,1.48s.54.81.94,1.07c.4.26.81.39,1.22.39,1,0,1.83-.27,2.52-.81.68-.54,1.02-1.23,1.02-2.07Z"/>
    <path class="cls-3" d="m39.18,262.91v-5.7h7.77c.3.93.52,1.83.65,2.68.13.86.19,1.79.19,2.78,0,2.34-.69,4.15-2.08,5.42s-3.35,1.91-5.87,1.91-4.44-.72-5.85-2.15c-1.41-1.43-2.11-3.41-2.11-5.92,0-1.62.31-3.15.93-4.6l2.11.89c-.58,1.26-.87,2.51-.87,3.77,0,1.65.52,2.96,1.56,3.92,1.04.96,2.46,1.44,4.26,1.44,1.89,0,3.33-.43,4.32-1.3.99-.86,1.48-2.11,1.48-3.73,0-.82-.1-1.7-.31-2.63h-3.99v3.21h-2.17Z"/>
    <path class="cls-3" d="m39.81,237.6c2.52,0,4.48.63,5.88,1.89,1.4,1.26,2.1,3.04,2.1,5.35s-.69,4.13-2.08,5.39c-1.39,1.25-3.36,1.88-5.92,1.88s-4.52-.63-5.89-1.89-2.05-3.06-2.05-5.4.7-4.08,2.09-5.34c1.39-1.26,3.35-1.89,5.88-1.89Zm0,11.82c1.91,0,3.35-.38,4.34-1.15.98-.77,1.48-1.91,1.48-3.42s-.49-2.64-1.46-3.4c-.98-.77-2.43-1.15-4.35-1.15s-3.34.38-4.32,1.14-1.47,1.89-1.47,3.39.49,2.66,1.47,3.44,2.42,1.16,4.32,1.16Z"/>
    <path class="cls-3" d="m32.09,219.99h10.02c1.14,0,2.15.25,3,.74.86.49,1.52,1.2,1.98,2.13.46.93.69,2.04.69,3.33,0,1.92-.51,3.41-1.53,4.48-1.02,1.07-2.41,1.6-4.19,1.6h-9.98v-2.54h9.8c1.28,0,2.22-.3,2.83-.89s.91-1.5.91-2.73c0-2.39-1.25-3.58-3.76-3.58h-9.78v-2.53Z"/>
    <path class="cls-3" d="m41.39,211.35h6.19v2.53h-15.48v-4.37c0-2,.38-3.48,1.12-4.44.75-.96,1.88-1.44,3.39-1.44,1.93,0,3.3,1,4.12,3.01l6.85-4.37v2.88l-6.19,3.71v2.5Zm-2.1,0v-1.76c0-1.18-.22-2.03-.66-2.56-.44-.53-1.09-.79-1.95-.79s-1.5.29-1.88.86c-.38.57-.57,1.43-.57,2.58v1.67h5.06Z"/>
    <path class="cls-3" d="m47.57,191.18l-12.93,4.49v.08c1.92-.12,3.72-.18,5.4-.18h7.53v2.3h-15.48v-3.57l12.32-4.3v-.06l-12.32-4.43v-3.58h15.48v2.44h-7.66c-.77,0-1.77-.02-3.01-.06-1.24-.04-1.98-.07-2.25-.1v.08l12.91,4.65v2.23Z"/>
    <path class="cls-3" d="m47.57,166.08l-4.3,1.55v5.92l4.3,1.51v2.67l-15.55-5.79v-2.75l15.55-5.79v2.69Zm-6.48,2.21l-4.22,1.45c-.28.11-.73.25-1.33.44s-1.05.32-1.33.39c.87.19,1.82.47,2.85.84l4.04,1.4v-4.51Z"/>
    <path class="cls-3" d="m47.57,146.3v3.1l-12.34,7.62v.08l.69-.05c1.31-.1,2.51-.15,3.6-.15h8.05v2.3h-15.48v-3.07l12.28-7.59v-.06c-.16.01-.75.04-1.77.08-1.02.04-1.82.06-2.39.06h-8.11v-2.32h15.48Z"/>
    <path class="cls-3" d="m39.68,127.47c2.56,0,4.51.71,5.86,2.13,1.35,1.42,2.03,3.46,2.03,6.13v4.33h-15.48v-4.79c0-2.46.66-4.38,1.99-5.75,1.33-1.37,3.2-2.05,5.6-2.05Zm.08,2.67c-3.71,0-5.56,1.73-5.56,5.2v2.19h11.24v-1.8c0-3.73-1.89-5.59-5.68-5.59Z"/>
    <path class="cls-3" d="m43.37,113.05c1.38,0,2.46.5,3.24,1.49.78,1,1.18,2.37,1.18,4.12s-.27,3.18-.82,4.3h-2.39c.33-.71.59-1.46.78-2.25.19-.79.29-1.53.29-2.22,0-1-.19-1.74-.57-2.22-.38-.48-.89-.71-1.54-.71-.58,0-1.07.22-1.47.66-.4.44-.88,1.34-1.43,2.71-.57,1.41-1.22,2.41-1.96,2.99-.73.58-1.62.87-2.65.87-1.29,0-2.31-.46-3.05-1.38-.74-.92-1.11-2.15-1.11-3.7s.32-2.96.97-4.43l2.07.8c-.58,1.38-.87,2.61-.87,3.69,0,.82.18,1.44.54,1.86s.83.64,1.41.64c.4,0,.75-.08,1.03-.25s.56-.45.81-.84c.25-.39.59-1.09,1.01-2.1.47-1.14.91-1.97,1.32-2.5.41-.53.87-.92,1.39-1.17s1.12-.37,1.82-.37Z"/>
  </g>
</svg>