<?xml version="1.0" standalone="no"?>
<!DOCTYPE svg PUBLIC "-//W3C//DTD SVG 20010904//EN"
 "http://www.w3.org/TR/2001/REC-SVG-20010904/DTD/svg10.dtd">
<svg version="1.0" xmlns="http://www.w3.org/2000/svg"
 width="752.000000pt" height="752.000000pt" viewBox="0 0 752.000000 752.000000"
 preserveAspectRatio="xMidYMid meet">

<g transform="translate(0.000000,752.000000) scale(0.100000,-0.100000)"
fill="#FFFFFF" stroke="none">
<path d="M3550 5500 c20 -13 83 -13 75 0 -3 6 -25 10 -48 10 -31 0 -38 -3 -27
-10z"/>
<path d="M3370 5431 c0 -6 8 -11 18 -11 9 0 55 -4 102 -10 47 -5 157 -14 245
-19 88 -6 193 -13 233 -17 47 -5 72 -3 72 3 0 13 -41 19 -265 39 -274 24 -405
29 -405 15z"/>
<path d="M3260 5369 c37 -16 158 -35 305 -49 72 -6 175 -18 230 -25 55 -8 152
-19 215 -25 63 -6 137 -16 163 -22 35 -7 52 -7 59 0 18 18 -36 32 -157 43 -60
5 -157 16 -215 24 -58 8 -159 19 -225 25 -111 10 -246 23 -355 35 -39 5 -42 4
-20 -6z"/>
<path d="M3000 5341 c0 -5 26 -14 58 -20 325 -63 370 -87 147 -77 -82 3 -203
13 -269 21 -115 14 -166 12 -166 -6 0 -5 15 -9 33 -9 58 1 337 -34 337 -41 0
-4 -15 -10 -32 -14 -34 -7 -58 -17 -163 -65 -33 -16 -71 -31 -85 -35 -46 -13
-114 -58 -180 -118 -36 -33 -83 -71 -104 -86 -44 -29 -136 -161 -136 -195 0
-11 7 -39 15 -61 19 -53 19 -217 -1 -325 -12 -70 -14 -141 -9 -400 7 -307 7
-315 28 -333 15 -12 32 -16 54 -12 29 5 35 2 63 -36 16 -23 30 -50 30 -60 0
-29 -48 -59 -95 -59 -23 0 -47 -6 -52 -12 -6 -8 -6 -51 -2 -108 5 -52 11 -153
14 -225 3 -71 12 -184 20 -250 8 -66 16 -137 18 -159 2 -38 3 -39 61 -57 32
-9 88 -22 125 -28 36 -6 121 -20 188 -31 66 -11 145 -20 175 -20 29 0 74 -7
99 -16 44 -16 48 -16 85 2 21 11 70 55 109 100 38 45 106 123 150 173 86 99
138 175 112 166 -15 -6 -215 -216 -305 -322 -65 -74 -101 -93 -136 -69 -33 21
-46 72 -46 178 0 78 2 89 25 117 14 16 35 33 45 36 34 11 23 30 -17 30 l-38 0
-3 122 -3 122 70 66 c64 61 280 230 308 242 7 3 29 -9 48 -26 20 -17 39 -31
43 -31 18 1 28 18 26 48 -2 46 -3 47 -16 34 -18 -18 -28 -15 -28 8 0 13 7 20
19 20 13 0 21 8 23 23 4 31 55 35 91 7 36 -29 35 -65 -3 -98 -27 -23 -40 -52
-24 -52 11 0 50 23 72 43 26 24 29 65 7 106 -17 33 -87 71 -132 71 -38 0 -81
-33 -99 -75 -12 -29 -69 -81 -151 -138 -17 -12 -64 -47 -105 -78 -40 -31 -90
-66 -111 -78 -33 -20 -38 -21 -43 -6 -7 18 30 54 134 132 58 44 74 63 53 63
-15 0 -82 -41 -127 -77 -41 -33 -64 -41 -64 -24 0 6 34 40 75 78 66 60 91 94
68 93 -5 0 -35 -21 -67 -45 -43 -33 -63 -42 -70 -34 -8 8 10 30 64 80 80 73
80 84 -1 44 -56 -29 -66 -22 -55 39 6 31 11 35 69 51 78 22 112 46 138 97 18
35 19 45 9 94 -13 61 -53 115 -104 141 -48 24 -76 54 -76 83 0 31 105 138 190
193 58 37 121 97 103 97 -6 0 -26 -12 -46 -27 -20 -16 -64 -46 -99 -68 -34
-21 -80 -55 -100 -73 -40 -36 -68 -37 -68 -4 0 19 102 104 228 192 54 37 75
60 57 60 -14 0 -77 -37 -164 -97 -90 -61 -121 -71 -121 -39 0 18 134 127 206
167 55 32 86 59 65 59 -19 0 -148 -68 -200 -105 -27 -19 -51 -35 -55 -35 -10
0 -7 59 4 79 5 10 32 33 60 51 27 18 50 36 50 40 0 10 -46 -2 -78 -19 -30 -16
-31 -16 -34 46 -2 44 -7 59 -19 61 -23 4 -32 -96 -34 -378 l-1 -235 -45 3
c-38 3 -51 -1 -77 -23 -51 -43 -36 -85 16 -45 24 20 34 21 97 15 78 -7 108
-20 146 -62 36 -38 49 -66 49 -102 0 -72 -41 -110 -128 -118 -84 -8 -92 -15
-92 -73 0 -27 -5 -83 -11 -125 -9 -59 -9 -117 1 -248 7 -95 12 -259 11 -366
-1 -122 3 -215 10 -249 19 -84 38 -83 -303 -26 -114 19 -213 37 -221 39 -21 9
-40 140 -48 350 -4 105 -11 218 -15 252 -9 84 -2 106 38 121 18 6 49 24 67 40
44 37 44 70 1 139 -33 53 -38 56 -97 68 l-33 7 -1 66 c-1 37 -3 96 -4 132 -17
412 -17 437 -2 546 13 88 14 136 6 238 l-9 128 46 63 c27 36 63 72 87 85 23
13 69 48 101 77 48 42 75 58 136 77 42 14 110 42 151 64 55 29 92 41 142 46
88 10 97 2 52 -44 l-36 -37 -6 -140 c-5 -122 -4 -142 12 -166 9 -15 22 -27 27
-27 6 0 31 15 57 34 25 18 94 64 154 100 59 37 107 72 107 78 0 5 -3 8 -7 6
-27 -12 -196 -106 -232 -130 -47 -30 -64 -31 -69 -6 -2 10 21 34 62 63 36 26
66 51 66 56 0 13 -5 12 -70 -21 -32 -16 -61 -26 -63 -22 -2 4 -1 37 2 74 10
112 60 146 251 168 82 10 103 9 155 -5 33 -10 99 -28 148 -41 120 -33 509
-223 602 -294 102 -79 156 -137 203 -217 48 -82 57 -90 70 -67 9 16 17 16 80
6 82 -14 172 -16 172 -4 0 5 -54 16 -119 25 -66 9 -127 20 -136 24 -21 7 -57
85 -46 96 10 10 309 -18 361 -33 36 -10 97 -14 88 -5 -8 8 -108 33 -163 40
-249 32 -334 50 -318 66 8 8 167 -2 298 -21 88 -12 108 -12 101 -1 -6 10 -32
14 -271 47 -188 25 -235 37 -235 60 0 18 51 18 155 0 144 -25 215 -30 215 -15
0 11 -57 22 -226 46 -208 30 -231 35 -273 63 l-46 30 105 0 c58 0 140 -7 183
-15 86 -16 182 -20 157 -6 -17 10 -166 31 -413 61 -163 19 -207 30 -207 51 0
11 216 4 315 -11 33 -5 104 -12 159 -16 82 -6 98 -5 94 7 -3 8 -16 13 -29 13
-24 -2 -132 10 -259 27 -36 5 -131 13 -213 18 -136 9 -257 32 -257 49 0 4 133
7 295 7 192 0 294 4 293 10 -2 6 -91 11 -239 12 -153 0 -282 7 -366 18 -105
13 -135 14 -151 4 -16 -10 -26 -9 -54 4 -20 9 -93 22 -167 30 -92 9 -135 18
-141 28 -5 8 -6 17 -2 21 8 7 140 -6 287 -28 214 -33 424 -41 432 -18 3 8 -37
14 -134 18 -131 7 -273 24 -373 45 -25 6 -69 10 -98 11 -29 0 -93 9 -142 20
-78 17 -321 60 -342 60 -5 0 -8 -4 -8 -9z m330 -165 c0 -3 -4 -8 -10 -11 -5
-3 -10 -1 -10 4 0 6 5 11 10 11 6 0 10 -2 10 -4z"/>
<path d="M3675 4994 c-43 -22 -64 -44 -86 -86 -25 -50 -24 -102 5 -163 42 -92
129 -141 236 -133 66 5 99 26 121 80 16 40 -2 58 -24 24 -27 -41 -57 -64 -88
-68 -39 -6 -45 2 -17 23 22 17 22 18 4 25 -14 5 -25 0 -42 -21 -20 -26 -25
-28 -48 -17 -34 15 -33 28 5 48 40 20 26 37 -21 24 -80 -23 -92 -6 -25 37 41
26 56 43 38 43 -5 0 -30 -7 -57 -15 -26 -8 -52 -12 -57 -9 -18 11 -8 24 29 40
35 15 36 16 18 30 -11 8 -26 14 -33 14 -15 0 -17 24 -3 50 14 27 73 60 107 60
16 0 54 -12 84 -27 43 -22 56 -35 63 -61 10 -36 39 -41 44 -7 5 42 -33 81 -99
104 -75 25 -113 26 -154 5z"/>
<path d="M4775 4900 c3 -5 22 -10 41 -10 21 0 33 4 29 10 -3 6 -22 10 -41 10
-21 0 -33 -4 -29 -10z"/>
<path d="M4980 4890 c0 -5 5 -10 10 -10 6 0 10 5 10 10 0 6 -4 10 -10 10 -5 0
-10 -4 -10 -10z"/>
<path d="M2681 4761 c-24 -33 -26 -53 -10 -82 8 -16 13 -18 25 -8 8 6 14 17
14 23 0 6 7 22 16 34 13 18 19 21 30 11 8 -7 12 -20 9 -30 -8 -24 19 -36 40
-19 21 18 19 34 -11 69 -35 42 -84 43 -113 2z"/>
<path d="M5064 4611 c8 -13 194 -57 202 -48 13 12 -4 19 -93 38 -101 21 -116
22 -109 10z"/>
<path d="M4675 4398 c2 -35 12 -71 31 -107 l29 -55 60 -1 c72 0 312 -40 412
-67 40 -11 83 -18 95 -16 32 5 -90 42 -223 68 -57 11 -140 27 -184 36 -44 9
-90 18 -103 20 -32 6 -17 24 21 24 72 0 247 -23 319 -42 77 -21 113 -19 106 4
-5 15 -154 40 -357 62 -138 14 -161 24 -161 64 0 12 16 13 98 7 53 -3 124 -13
156 -21 50 -13 61 -13 73 -2 11 12 -14 18 -159 41 -95 14 -183 29 -194 33 -20
5 -21 2 -19 -48z"/>
<path d="M4127 4404 c-56 -17 -106 -78 -132 -162 -14 -44 -15 -60 -5 -103 23
-97 99 -154 218 -165 61 -6 74 -4 111 17 47 26 58 55 15 39 -44 -17 -145 -11
-194 11 l-45 21 28 22 c47 38 30 61 -23 31 -14 -8 -33 -14 -42 -15 -29 0 -20
27 12 40 39 16 33 36 -9 32 -41 -5 -38 17 5 36 48 22 56 27 55 37 0 6 -12 11
-26 13 -17 2 -25 9 -25 24 0 18 4 19 34 14 23 -4 37 -2 45 8 13 15 0 30 -26
31 -23 0 -16 20 11 33 25 13 52 10 173 -14 34 -7 53 -54 53 -129 0 -50 3 -65
15 -65 54 0 42 166 -16 214 -28 24 -106 47 -157 45 -15 0 -48 -7 -75 -15z"/>
<path d="M2790 4342 c-55 -22 -73 -53 -64 -113 9 -57 65 -119 105 -119 34 0
49 24 30 49 -6 9 -14 24 -18 34 -4 14 -12 16 -38 11 -31 -5 -33 -4 -40 27 -6
28 -4 36 19 56 33 28 57 29 81 3 22 -24 55 -26 55 -4 0 19 -54 74 -72 73 -7 0
-33 -8 -58 -17z"/>
<path d="M3499 4280 c-23 -22 -29 -38 -29 -70 0 -23 5 -50 10 -61 14 -25 62
-49 100 -49 43 0 90 47 90 89 0 41 -13 39 -38 -4 -27 -44 -64 -55 -100 -28
-30 23 -41 75 -21 99 10 12 24 14 56 9 26 -4 43 -2 43 4 0 12 -13 20 -51 31
-27 8 -35 5 -60 -20z"/>
<path d="M4726 4172 c-9 -15 1 -19 64 -27 30 -4 98 -18 150 -31 52 -13 106
-24 120 -25 14 0 57 -8 95 -19 42 -11 74 -14 79 -9 19 18 -12 30 -140 53 -71
13 -153 31 -183 40 -72 21 -176 31 -185 18z"/>
<path d="M4638 4098 c-14 -18 -31 -44 -38 -58 -16 -30 -63 -87 -186 -225 -50
-56 -137 -159 -192 -227 -135 -168 -214 -254 -403 -438 -87 -85 -159 -162
-159 -170 0 -8 19 5 43 31 23 26 80 75 127 110 158 117 375 345 512 539 25 36
79 102 119 146 41 45 93 104 117 132 36 44 47 51 70 47 15 -3 113 -21 217 -41
105 -19 228 -42 275 -50 47 -8 146 -33 220 -55 74 -22 158 -46 186 -54 28 -8
60 -15 72 -15 32 0 27 28 -5 36 -81 18 -238 58 -313 79 -47 14 -200 47 -340
75 -271 53 -300 61 -300 84 0 23 19 24 165 6 141 -18 267 -44 384 -80 68 -21
131 -26 131 -10 0 5 -10 12 -22 15 -108 24 -156 36 -239 58 -53 14 -152 33
-220 42 -86 11 -132 22 -151 36 -36 25 -42 24 -70 -13z"/>
<path d="M3063 3940 c-32 -13 -30 -40 3 -40 14 0 34 5 45 11 16 8 18 13 8 25
-13 16 -24 17 -56 4z"/>
<path d="M2960 3855 c-7 -9 -13 -34 -12 -55 2 -33 -1 -40 -17 -40 -10 0 -26
11 -35 25 -18 27 -56 34 -56 11 0 -8 11 -27 24 -43 21 -24 33 -28 102 -34 44
-3 87 -10 97 -14 14 -6 17 -2 17 19 0 19 6 27 25 32 14 3 25 13 25 20 0 25
-28 27 -65 6 -31 -19 -36 -20 -50 -5 -21 20 -14 39 13 35 27 -4 64 16 59 31
-2 6 -19 12 -38 13 -19 0 -43 4 -55 8 -14 4 -26 1 -34 -9z"/>
<path d="M2613 3823 c-27 -10 -7 -43 27 -43 14 0 41 31 35 41 -6 9 -41 11 -62
2z"/>
<path d="M2762 3208 c-30 -15 -60 -65 -68 -114 -5 -37 -3 -44 41 -95 25 -29
56 -58 68 -62 46 -17 107 17 107 60 0 28 -11 29 -35 3 -18 -20 -65 -28 -65
-11 0 5 7 14 15 21 26 22 1 34 -29 15 -24 -16 -26 -16 -32 0 -5 12 0 23 16 35
27 20 19 40 -16 40 -33 0 -22 17 17 25 23 5 29 11 27 28 -2 12 2 21 7 21 6 -1
27 -5 48 -8 47 -9 49 7 5 34 -36 22 -71 24 -106 8z"/>
<path d="M3347 3156 c-39 -36 -37 -78 7 -111 50 -38 77 -31 93 24 11 39 11 48
-5 75 -24 41 -59 45 -95 12z m73 -67 c0 -12 -7 -19 -20 -19 -26 0 -36 25 -20
45 16 19 40 2 40 -26z"/>
<path d="M3210 2811 c-34 -18 -53 -51 -30 -51 15 0 80 50 80 61 0 13 -12 11
-50 -10z"/>
</g>
</svg>
