<?xml version="1.0" standalone="no"?>
<!DOCTYPE svg PUBLIC "-//W3C//DTD SVG 20010904//EN"
 "http://www.w3.org/TR/2001/REC-SVG-20010904/DTD/svg10.dtd">
<svg version="1.0" xmlns="http://www.w3.org/2000/svg"
 width="512.000000pt" height="512.000000pt" viewBox="0 0 512.000000 512.000000"
 preserveAspectRatio="xMidYMid meet">

<g transform="translate(0.000000,512.000000) scale(0.100000,-0.100000)"
fill="#FED88E" stroke="none">
<path d="M4078 4348 c-46 -38 -28 -66 98 -154 77 -54 93 -69 83 -80 -6 -8 -9
-27 -5 -44 5 -28 1 -33 -71 -83 -105 -71 -133 -99 -126 -126 7 -26 38 -45 61
-36 19 7 393 258 389 261 -22 21 -393 274 -401 274 -7 0 -19 -6 -28 -12z"/>
<path d="M3982 4123 c-31 -6 -47 -39 -33 -69 14 -31 39 -35 141 -26 77 6 85 9
99 34 14 24 14 28 -3 47 -17 18 -30 21 -100 20 -45 -1 -91 -4 -104 -6z"/>
<path d="M3722 4100 c-61 -9 -82 -23 -82 -56 0 -42 34 -54 125 -43 107 13 125
22 125 57 0 15 -5 33 -12 40 -13 13 -73 14 -156 2z"/>
<path d="M3433 4055 c-34 -7 -69 -18 -78 -25 -23 -19 -18 -57 8 -75 22 -14 33
-13 117 4 93 19 110 29 110 67 0 46 -38 53 -157 29z"/>
<path d="M3145 3988 c-84 -24 -95 -32 -95 -68 0 -51 20 -56 124 -31 103 24
116 33 116 71 0 55 -32 61 -145 28z"/>
<path d="M2850 3892 c-87 -36 -90 -38 -90 -73 0 -51 34 -57 127 -24 89 32 113
49 113 80 0 52 -50 57 -150 17z"/>
<path d="M2565 3767 c-66 -35 -81 -47 -83 -69 -2 -20 4 -31 22 -44 25 -16 29
-15 103 21 113 53 136 81 97 119 -24 24 -52 19 -139 -27z"/>
<path d="M2298 3620 c-63 -40 -78 -54 -78 -74 0 -28 24 -56 48 -56 9 0 53 24
97 53 84 55 100 80 70 111 -26 26 -55 19 -137 -34z"/>
<path d="M2064 3459 c-74 -54 -94 -75 -94 -96 0 -17 36 -53 54 -53 8 0 49 27
90 60 75 59 89 84 68 116 -20 31 -50 25 -118 -27z"/>
<path d="M1817 3250 c-69 -63 -84 -99 -55 -128 27 -27 60 -13 131 57 67 65 71
71 62 98 -8 21 -18 29 -41 31 -25 2 -41 -7 -97 -58z"/>
<path d="M1622 3043 c-30 -32 -60 -71 -69 -86 -13 -25 -13 -31 2 -53 28 -43
57 -32 124 48 66 78 78 118 42 138 -33 17 -43 12 -99 -47z"/>
<path d="M1435 2803 c-76 -97 -88 -145 -41 -162 35 -14 52 -2 105 74 51 73 62
110 39 133 -26 26 -57 13 -103 -45z"/>
<path d="M1308 2598 c-23 -19 -98 -153 -98 -176 0 -22 30 -52 53 -52 30 0 131
166 120 199 -7 19 -32 41 -48 41 -6 0 -18 -6 -27 -12z"/>
<path d="M1167 2329 c-24 -14 -89 -157 -85 -188 4 -30 28 -46 60 -38 19 5 33
24 61 89 42 94 44 108 19 131 -21 20 -30 20 -55 6z"/>
<path d="M1042 2043 c-20 -18 -72 -148 -72 -182 0 -21 30 -51 52 -51 23 0 43
29 71 108 32 87 33 103 9 125 -23 21 -35 21 -60 0z"/>
<path d="M938 1753 c-8 -10 -25 -58 -38 -106 l-23 -88 21 -22 c18 -17 26 -19
49 -11 23 8 31 21 49 84 29 96 30 136 5 150 -28 15 -46 12 -63 -7z"/>
<path d="M860 1455 c-15 -18 -39 -126 -40 -177 0 -27 5 -40 19 -48 47 -25 68
-1 91 100 24 104 24 105 4 124 -20 20 -58 21 -74 1z"/>
<path d="M801 1152 c-5 -10 -15 -58 -21 -106 -11 -79 -10 -89 6 -107 20 -22
43 -24 68 -6 24 17 46 198 27 221 -18 22 -68 20 -80 -2z"/>
<path d="M772 858 c-7 -7 -12 -40 -12 -80 0 -56 3 -69 19 -78 28 -14 38 -13
61 10 15 15 20 33 20 78 0 32 -5 63 -12 70 -15 15 -61 15 -76 0z"/>
</g>
</svg>
