<?xml version="1.0" standalone="no"?>
<!DOCTYPE svg PUBLIC "-//W3C//DTD SVG 20010904//EN"
 "http://www.w3.org/TR/2001/REC-SVG-20010904/DTD/svg10.dtd">
<svg version="1.0" xmlns="http://www.w3.org/2000/svg"
 width="752.000000pt" height="752.000000pt" viewBox="0 0 752.000000 752.000000"
 preserveAspectRatio="xMidYMid meet">

<g transform="translate(0.000000,752.000000) scale(0.100000,-0.100000)"
fill="#FFFFFF" stroke="none">
<path d="M3819 5086 c-3 -3 -57 -8 -120 -10 -151 -6 -248 -38 -249 -82 0 -22
28 -23 66 -3 28 14 59 19 119 19 44 1 114 6 155 14 87 14 341 8 347 -10 2 -5
-45 -39 -104 -74 -210 -123 -290 -174 -498 -319 -115 -80 -239 -164 -275 -188
-100 -65 -102 -66 -95 -85 11 -29 38 -21 80 23 64 66 453 331 630 429 33 18
138 80 233 137 l172 103 38 -24 c49 -31 101 -89 141 -159 37 -65 67 -78 56
-24 -18 91 -113 216 -179 236 -34 10 -508 26 -517 17z"/>
<path d="M3230 4891 c-47 -21 -124 -63 -170 -94 -47 -30 -139 -83 -205 -117
-153 -80 -224 -122 -306 -182 -40 -29 -85 -51 -115 -58 -27 -6 -76 -28 -109
-49 -84 -54 -213 -117 -298 -148 -89 -31 -179 -76 -196 -97 -16 -19 -10 -50
11 -54 18 -3 660 329 748 388 30 20 82 52 115 70 33 18 79 46 102 62 24 16 80
44 125 63 46 19 106 53 133 75 86 68 131 91 195 100 69 10 92 24 88 54 -4 31
-25 29 -118 -13z"/>
<path d="M4620 4652 c0 -20 90 -153 135 -202 27 -28 55 -89 55 -119 0 -14 -16
-29 -52 -48 -63 -34 -98 -82 -98 -133 0 -22 15 -70 34 -111 18 -41 38 -87 45
-102 13 -33 79 -66 130 -67 45 0 111 63 111 108 0 34 -24 65 -48 60 -18 -3
-38 -38 -47 -80 -6 -31 -37 -38 -66 -15 -24 19 -74 136 -62 148 6 6 43 6 106
-2 87 -10 139 -7 125 6 -3 3 -43 12 -89 20 -166 29 -217 61 -156 99 36 22 236
29 337 11 97 -17 199 -20 185 -6 -6 6 -68 22 -140 36 -155 31 -227 61 -255
107 -11 18 -20 42 -20 53 0 11 -22 42 -49 70 -28 27 -72 79 -98 115 -50 67
-83 88 -83 52z"/>
<path d="M3220 4645 c0 -9 5 -15 11 -13 6 2 11 8 11 13 0 5 -5 11 -11 13 -6 2
-11 -4 -11 -13z"/>
<path d="M3973 4541 c-53 -25 -68 -49 -87 -141 -16 -81 -10 -111 35 -159 39
-42 66 -1 30 44 -11 14 -23 39 -26 55 -8 38 20 127 45 140 29 15 89 12 121 -7
27 -16 30 -16 45 -1 20 20 13 41 -20 63 -39 26 -95 28 -143 6z"/>
<path d="M2734 4426 c-3 -9 1 -27 9 -39 14 -21 13 -26 -4 -54 -16 -26 -17 -32
-5 -42 16 -13 59 0 88 26 26 24 23 79 -4 97 -39 25 -77 30 -84 12z"/>
<path d="M5025 4430 c3 -5 16 -10 28 -9 21 0 21 1 2 9 -28 12 -37 12 -30 0z"/>
<path d="M5145 4420 c-4 -6 5 -10 19 -10 14 0 26 5 26 10 0 6 -9 10 -19 10
-11 0 -23 -4 -26 -10z"/>
<path d="M4177 4353 c-14 -13 -7 -50 13 -71 24 -26 45 -28 54 -7 15 39 -41
104 -67 78z"/>
<path d="M2913 4189 c-76 -51 -161 -115 -189 -143 -28 -28 -63 -59 -78 -69
-14 -10 -26 -27 -26 -39 0 -36 102 -218 122 -218 23 0 17 27 -24 117 -15 34
-28 69 -28 76 0 25 154 163 237 211 107 62 167 130 134 150 -5 4 -72 -35 -148
-85z"/>
<path d="M1930 4054 c-8 -8 -28 -21 -47 -29 -39 -17 -42 -39 -10 -81 24 -34
107 -108 137 -124 11 -6 29 -30 41 -53 12 -23 34 -55 49 -72 15 -16 47 -61 70
-100 24 -38 68 -103 100 -145 31 -41 77 -106 102 -145 25 -38 62 -90 83 -115
21 -25 51 -73 66 -108 16 -34 41 -82 57 -105 16 -23 32 -52 36 -64 6 -19 15
-23 45 -23 47 0 67 -20 52 -49 -16 -29 -13 -61 5 -68 45 -17 100 55 88 116
-11 52 -49 81 -105 81 l-49 0 -38 83 c-22 45 -59 107 -84 137 -24 30 -64 84
-88 120 -24 36 -62 88 -84 115 -58 70 -86 110 -131 184 -21 35 -71 100 -110
145 -80 90 -175 214 -175 228 0 19 32 18 158 -7 109 -21 141 -24 189 -16 32 5
88 7 125 4 47 -4 72 -2 83 7 47 39 -24 75 -130 66 -236 -20 -217 -20 -273 8
-60 30 -141 36 -162 10z"/>
<path d="M5025 4019 c-6 -17 3 -32 39 -68 25 -26 46 -52 46 -59 0 -7 16 -52
35 -101 19 -48 35 -93 35 -99 0 -5 -20 -22 -45 -36 -25 -15 -78 -56 -117 -91
-40 -36 -140 -105 -223 -154 -129 -77 -164 -104 -250 -190 -63 -64 -107 -101
-120 -101 -12 0 -34 14 -51 31 -42 45 -103 77 -166 90 -52 10 -60 9 -111 -14
-61 -28 -141 -95 -162 -138 -8 -14 -17 -66 -21 -115 -5 -71 -3 -97 10 -128 9
-21 13 -42 10 -47 -3 -5 -28 -21 -55 -35 -55 -27 -80 -64 -60 -88 16 -20 122
-43 278 -61 140 -16 623 -21 623 -6 0 13 -66 21 -190 21 -138 0 -309 14 -447
36 -114 19 -138 28 -110 45 10 6 34 24 53 41 l35 31 232 -28 c273 -32 437 -42
437 -28 0 6 -28 14 -62 17 -108 12 -540 86 -594 101 -69 20 -104 49 -104 86 0
26 2 28 23 19 23 -9 143 -25 489 -65 297 -34 378 -40 378 -27 0 13 -31 18
-145 27 -44 3 -129 17 -190 30 -60 13 -177 33 -260 45 -82 11 -169 25 -193 31
-29 6 -49 6 -62 -1 -25 -13 -25 -4 -1 53 11 26 27 47 38 49 21 4 180 -18 235
-33 20 -5 50 -21 66 -34 34 -29 43 -30 97 -11 28 10 67 13 132 9 63 -4 93 -2
93 5 0 11 -5 13 -80 32 -64 17 -73 26 -55 60 22 42 54 48 185 35 214 -23 313
-28 305 -15 -11 19 -51 29 -147 40 -119 14 -218 39 -225 58 -4 8 2 21 13 29
21 17 131 14 332 -7 104 -11 135 -10 119 6 -3 3 -63 15 -134 26 -163 26 -203
36 -203 51 0 7 33 30 73 52 l72 40 205 5 c214 5 213 8 -12 31 -64 7 -122 15
-129 20 -21 12 14 54 67 79 45 22 50 23 183 11 162 -13 181 -13 181 -3 0 4
-22 16 -50 27 -27 11 -50 24 -50 29 0 5 -10 28 -22 52 -12 24 -19 46 -16 50 3
3 68 -1 145 -10 223 -24 313 -29 313 -17 0 13 0 13 -265 51 -121 17 -228 33
-238 36 -18 6 -57 72 -57 97 0 8 7 20 16 27 12 11 46 10 187 -3 95 -10 192
-17 217 -17 43 1 44 1 20 14 -14 7 -60 16 -102 20 -145 13 -400 65 -423 86
-28 26 -62 26 -70 -1z m-790 -853 c44 -19 45 -36 1 -36 -37 0 -96 18 -96 29 0
25 44 28 95 7z"/>
<path d="M3605 3946 c-23 -43 -14 -68 22 -64 18 2 33 14 45 34 23 39 15 64
-21 64 -21 0 -32 -8 -46 -34z"/>
<path d="M4064 3869 c-42 -12 -52 -27 -66 -92 -14 -67 0 -110 44 -133 24 -12
33 -13 56 -2 41 20 37 57 -8 72 -30 9 -35 16 -38 44 -5 46 9 58 74 65 65 7 83
19 64 42 -14 17 -75 19 -126 4z"/>
<path d="M4586 3720 c-56 -67 -59 -162 -5 -168 39 -5 55 21 41 62 -15 41 -15
42 3 60 10 10 26 13 50 9 40 -7 44 3 14 41 -29 37 -70 35 -103 -4z"/>
<path d="M2796 3638 c16 -50 72 -164 87 -176 29 -24 52 -11 55 33 4 49 23 72
74 87 42 12 63 31 53 48 -10 16 -50 12 -121 -15 -36 -14 -68 -25 -69 -25 -2 0
-13 16 -25 35 -25 41 -66 50 -54 13z"/>
<path d="M2475 3568 c-29 -15 -45 -38 -45 -63 0 -20 5 -22 60 -23 47 -1 62 3
69 16 13 25 -4 61 -34 72 -31 12 -25 12 -50 -2z"/>
<path d="M5448 3573 c6 -2 18 -2 25 0 6 3 1 5 -13 5 -14 0 -19 -2 -12 -5z"/>
<path d="M3200 3562 c0 -5 12 -19 26 -33 32 -30 54 -71 54 -102 0 -33 -113
-132 -169 -147 -86 -23 -74 -89 34 -191 37 -35 89 -96 116 -137 27 -40 65 -93
84 -116 19 -24 54 -81 77 -127 32 -62 53 -91 85 -113 35 -24 45 -27 58 -16 23
19 19 28 -34 78 -31 30 -55 65 -66 97 -18 48 -38 73 -88 107 -17 12 -27 31
-32 60 -6 34 -18 53 -55 88 -50 48 -150 175 -150 191 0 5 17 17 38 26 30 15
38 24 40 49 3 27 9 34 47 48 75 29 94 87 52 161 -30 53 -117 110 -117 77z"/>
<path d="M3574 3316 c-73 -32 -52 -136 27 -136 30 0 31 1 25 35 -6 31 -4 36
19 45 34 13 43 39 20 56 -23 17 -51 17 -91 0z"/>
<path d="M2877 3308 c-14 -39 47 -93 81 -72 29 19 24 32 -21 58 -50 30 -53 30
-60 14z"/>
<path d="M5096 3142 c-3 -6 11 -13 35 -17 38 -7 59 -2 47 10 -11 12 -76 17
-82 7z"/>
<path d="M4690 3021 c8 -5 38 -12 65 -16 46 -6 49 -5 31 9 -12 10 -39 16 -65
16 -31 -1 -41 -3 -31 -9z"/>
<path d="M4832 3012 c-9 -6 8 -11 49 -16 88 -9 148 -7 129 3 -22 13 -163 23
-178 13z"/>
<path d="M3030 2977 c-30 -15 -55 -58 -47 -80 7 -18 47 -24 47 -7 0 5 14 22
30 37 33 29 38 48 14 57 -19 7 -14 8 -44 -7z"/>
<path d="M4918 2853 c6 -2 18 -2 25 0 6 3 1 5 -13 5 -14 0 -19 -2 -12 -5z"/>
<path d="M2762 2728 c-21 -21 -13 -62 19 -106 31 -42 65 -55 75 -29 5 13 -64
147 -76 147 -3 0 -11 -5 -18 -12z"/>
<path d="M4790 2721 c61 -15 225 -22 212 -9 -7 7 -59 13 -129 15 -80 1 -107 0
-83 -6z"/>
<path d="M3636 2599 c-23 -34 -10 -46 57 -53 34 -4 197 -34 362 -66 304 -60
482 -90 532 -90 51 1 2 18 -128 45 -68 15 -221 51 -339 80 -118 29 -250 58
-293 64 -43 6 -91 18 -107 26 -40 21 -66 19 -84 -6z"/>
<path d="M2984 2588 c-3 -4 -2 -24 2 -44 7 -40 20 -47 99 -58 28 -4 187 -43
355 -86 359 -92 380 -96 380 -77 0 10 -28 22 -82 36 -46 12 -163 47 -260 78
-165 52 -209 73 -157 73 38 0 268 -50 489 -105 224 -57 418 -95 479 -95 67 0
3 27 -120 50 -63 12 -211 50 -329 85 -118 35 -242 69 -274 76 -50 11 -62 18
-79 47 l-20 34 -239 -4 c-132 -2 -242 -6 -244 -10z"/>
<path d="M2860 2485 c0 -20 41 -36 201 -79 85 -24 136 -33 142 -27 11 11 -47
51 -73 51 -8 0 -60 16 -115 35 -109 38 -155 44 -155 20z"/>
<path d="M4340 2300 c20 -13 43 -13 35 0 -3 6 -16 10 -28 10 -18 0 -19 -2 -7
-10z"/>
</g>
</svg>
